#format: frame checksums
#version: 2
#hash: MD5
#tb 0: 1/25
#media_type 0: video
#codec_id 0: hap
#dimensions 0: 352x288
#sar 0: 0/1
#stream#, dts,        pts, duration,     size, hash
0,          0,          0,        1,    81934, ad9ee8c455704cad6c641479085d81dd
0,          1,          1,        1,    82165, dde5dfcfa5507c3f943d4186490e9fa6
0,          2,          2,        1,    83238, b1c9f8ce21d75e61dcd9d69726fd32cf
0,          3,          3,        1,    81773, 0ccaca5d91a1e41b0cb132826352be6f
0,          4,          4,        1,    82174, a629612d432620e61b82ac2f7c9a3619
